<svg xmlns="http://www.w3.org/2000/svg" viewBox="0 0 333333 333333" shape-rendering="geometricPrecision" text-rendering="geometricPrecision" image-rendering="optimizeQuality" fill-rule="evenodd" clip-rule="evenodd"><path d="M0 290353c0 23740 19243 42980 42980 42980h247371c23741 0 42981-19243 42981-42980V42982C333332 19241 314089 1 290352 1H42981C19240 1 0 19244 0 42981v247372z" fill="#563d7c"/><path d="M138226 147445v-47205h41551c3958 0 7774 330 11448 990 3674 659 6926 1836 9752 3533 2826 1696 5087 4052 6784 7066 1696 3016 2544 6879 2544 11589 0 8481-2544 14606-7633 18374-5087 3770-11589 5654-19504 5654h-44943zM93847 65755v201823h97802c9046 0 17856-1130 26430-3392s16206-5748 22896-10459c6689-4711 12013-10789 15970-18231 3958-7444 5936-16254 5936-26430 0-12626-3063-23414-9186-32365-6125-8952-15406-15217-27844-18798 9045-4333 15878-9893 20494-16677s6925-15263 6925-25440c0-9422-1555-17336-4664-23743-3109-6406-7491-11542-13144-15405-5652-3863-12436-6643-20352-8339-7914-1696-16677-2544-26288-2544H93847zm44379 167337v-55402h48335c9611 0 17337 2214 23180 6643 5841 4428 8763 11824 8763 22189 0 5277-896 9611-2686 13002-1791 3392-4193 6078-7208 8056-3015 1979-6502 3392-10459 4241-3958 846-8103 1270-12437 1270h-47487z" fill="#fff"/></svg>