<svg xmlns="http://www.w3.org/2000/svg" viewBox="0 0 333336 326998" shape-rendering="geometricPrecision" text-rendering="geometricPrecision" image-rendering="optimizeQuality" fill-rule="evenodd" clip-rule="evenodd"><path d="M259607 177678c40719 0 73729 33010 73729 73729s-33010 73729-73729 73729-73729-33009-73729-73729c0-40719 33009-73729 73729-73729zm-42488 71963h27206v42914h30681v-42912l27994-2-42912-41752-42969 41752zM47977 72354c21983 7338 52575 11877 86563 11877s64579-4539 86562-11877c19294-6440 31229-14239 31229-21864 0-7626-11934-15424-31228-21865-21983-7338-52575-11877-86563-11877s-64580 4539-86563 11877c-40936 13665-42062 29688 0 43729zm-31056 57466c1522 7111 13101 14280 31055 20274 21983 7338 52575 11877 86563 11877s64580-4539 86563-11877c19294-6440 31229-14238 31229-21865h93V75885c-6872 4704-15672 8846-26022 12301-23679 7904-56171 12793-91861 12793-35691 0-68183-4889-91862-12793-10217-3411-18923-7492-25756-12121v53754zm154791 121211c-11797 1189-24276 1828-37173 1828-35691 0-68183-4889-91862-12793-10217-3411-18923-7492-25756-12120v50153c1522 7111 13101 14280 31055 20274 21983 7338 52575 11877 86563 11877 20386 0 39550-1634 56367-4524 4224 5270 9042 10046 14357 14215-20432 4463-44729 7057-70724 7057-35691 0-68183-4889-91862-12793-12484-4167-42504-17862-42504-34234v-5362C173 199905 0 125183 0 50491c0-15633 16310-28895 42677-37697C66356 4890 98848 1 134539 1s68183 4889 91862 12793c24002 8012 39667 19721 42286 33548 313 879 484 1825 484 2811v114923c-3262-369-6575-565-9935-565-2293 0-4565 90-6813 263v-10149c-6872 4703-15672 8845-26022 12301-23679 7904-56171 12793-91862 12793s-68183-4889-91862-12793c-10217-3411-18923-7492-25756-12120v50153c1522 7111 13101 14280 31055 20274 21983 7338 52575 11877 86563 11877 13598 0 26651-727 38828-2069-1082 5496-1655 11176-1655 16989z"/></svg>